<svg width="200" height="200" viewBox="0 0 200 200" xmlns="http://www.w3.org/2000/svg">
  <!-- Background circle -->
  <circle cx="100" cy="100" r="100" fill="#A8C5D1"/>
  
  <!-- Nurse body -->
  <ellipse cx="100" cy="160" rx="45" ry="35" fill="#4A9DB8"/>
  
  <!-- Neck -->
  <rect x="90" y="125" width="20" height="15" fill="#D4A574" rx="10"/>
  
  <!-- Face -->
  <ellipse cx="100" cy="85" rx="35" ry="40" fill="#D4A574"/>
  
  <!-- Hair -->
  <path d="M 65 70 Q 65 45 100 45 Q 135 45 135 70 Q 135 85 125 95 L 120 85 Q 115 75 100 75 Q 85 75 80 85 L 75 95 Q 65 85 65 70 Z" fill="#4A3728"/>
  
  <!-- Nurse cap -->
  <path d="M 75 55 Q 100 40 125 55 Q 125 50 100 45 Q 75 50 75 55 Z" fill="#F5F5F5"/>
  
  <!-- Eyes -->
  <ellipse cx="88" cy="80" rx="4" ry="6" fill="#4A3728"/>
  <ellipse cx="112" cy="80" rx="4" ry="6" fill="#4A3728"/>
  
  <!-- Eyebrows -->
  <path d="M 82 72 Q 88 70 94 72" stroke="#4A3728" stroke-width="2" fill="none" stroke-linecap="round"/>
  <path d="M 106 72 Q 112 70 118 72" stroke="#4A3728" stroke-width="2" fill="none" stroke-linecap="round"/>
  
  <!-- Nose -->
  <ellipse cx="100" cy="88" rx="2" ry="3" fill="#C4956A"/>
  
  <!-- Mouth -->
  <path d="M 95 95 Q 100 100 105 95" stroke="#4A3728" stroke-width="2" fill="none" stroke-linecap="round"/>
  
  <!-- Ears -->
  <ellipse cx="65" cy="85" rx="8" ry="12" fill="#D4A574"/>
  <ellipse cx="135" cy="85" rx="8" ry="12" fill="#D4A574"/>
  
  <!-- Earrings -->
  <circle cx="65" cy="90" r="3" fill="#F5F5F5"/>
  <circle cx="135" cy="90" r="3" fill="#F5F5F5"/>
  
  <!-- Stethoscope -->
  <path d="M 75 130 Q 70 140 70 150 Q 70 160 80 160 Q 90 160 90 150 L 90 140" stroke="#2C5F7C" stroke-width="4" fill="none"/>
  <path d="M 125 130 Q 130 140 130 150 Q 130 160 120 160 Q 110 160 110 150 L 110 140" stroke="#2C5F7C" stroke-width="4" fill="none"/>
  <path d="M 90 140 Q 100 135 110 140" stroke="#2C5F7C" stroke-width="4" fill="none"/>
  
  <!-- Stethoscope chest piece -->
  <circle cx="100" cy="145" r="8" fill="#2C5F7C"/>
  <circle cx="100" cy="145" r="5" fill="#4A9DB8"/>
  
  <!-- Name badge -->
  <rect x="115" y="135" width="25" height="15" fill="#F5F5F5" rx="2"/>
  <rect x="117" y="137" width="21" height="3" fill="#E74C3C" rx="1"/>
  <text x="125" y="147" font-family="Arial, sans-serif" font-size="6" fill="#2C5F7C" text-anchor="middle" font-weight="bold">MediCare</text>
  
  <!-- V-neck scrubs detail -->
  <path d="M 85 125 L 100 135 L 115 125" stroke="#2C5F7C" stroke-width="2" fill="none"/>
</svg>